<svg width="57" height="93" viewBox="0 0 57 93" xmlns="http://www.w3.org/2000/svg"><g stroke="#259CC2" fill="none" fill-rule="evenodd"><g stroke-linecap="round"><path d="M46.96 27.618c0 12.905-4.225 29.772-23.225 29.772C4.738 57.39.515 40.523.515 27.618h46.444zM3 58h44"/><path d="M56.486 40.122c0 2.96-2.4 5.36-5.36 5.36-2.96 0-5.358-2.4-5.358-5.36 0-2.96 2.398-5.36 5.357-5.36 2.96 0 5.36 2.4 5.36 5.36zM17.783 16.9c-2.064-2.68 2.06-8.038 0-10.717M22.546 16.9c-2.063-2.778 2.062-13.893 0-16.672M28.5 17c-1.732-2.75 1.732-8.25 0-11"/></g><path d="M37 80L23.972 92 11 80.05"/><path d="M24 91.262V61.738" stroke-linecap="square"/></g></svg>