<svg width="124" height="67" viewBox="0 0 124 67" xmlns="http://www.w3.org/2000/svg" xmlns:xlink="http://www.w3.org/1999/xlink"><defs><path id="a" d="M0 66h123.275V0H0z"/></defs><g fill="none" fill-rule="evenodd"><path d="M53.275 27.612l21.8 2.455M53.027 29.815l21.8 2.455" stroke="#FEFEFE" stroke-linecap="round" stroke-linejoin="round"/><path d="M64.257 28.113L66.385 9.22" stroke="#FEFEFE" stroke-linejoin="round"/><g><path d="M73.222 18.592c-.51 4.535-4.93 10.712-9.462 10.2-4.533-.51-7.467-7.514-6.956-12.05.51-4.534 4.6-7.795 9.134-7.285 4.533.51 7.795 4.6 7.284 9.135z" stroke="#FEFEFE" stroke-linecap="round" stroke-linejoin="round"/><path d="M52.87 27.567c-2.14-4.324-3.49-7.068-2.98-11.602.51-4.535 4.6-7.797 9.134-7.286 1.116.124 2.154.468 3.08.98M74.67 30.022c3.047-3.74 5.08-6.103 5.59-10.637.51-4.535-2.75-8.625-7.284-9.135-1.116-.126-2.204-.02-3.22.273M67.367.5l-.655 5.813M64.94 2.434l4.36.49M73.042 63.306c0 1.21-.983 2.194-2.194 2.194h-23.4c-1.21 0-2.194-.983-2.194-2.194v-29.25c0-1.21.983-2.194 2.194-2.194h23.4c1.21 0 2.194.983 2.194 2.194v29.25z" stroke="#FEFEFE" stroke-linecap="round" stroke-linejoin="round"/><mask id="b" fill="#fff"><use xlink:href="#a"/></mask><path stroke="#FEFEFE" stroke-linecap="round" stroke-linejoin="round" mask="url(#b)" d="M48.257 60.15H70.04V34.545H48.256zM57.686 62.575h2.925M16.242 56.73c0 .687-.557 1.244-1.243 1.244H1.742C1.057 57.974.5 57.417.5 56.73V40.16c0-.686.557-1.242 1.243-1.242H15c.685 0 1.242.556 1.242 1.242v16.57z"/><path stroke="#FEFEFE" stroke-linecap="round" stroke-linejoin="round" mask="url(#b)" d="M2.2 54.942h12.34V40.437H2.2zM7.543 56.317H9.2M96.77 57.446c0 .828-.673 1.5-1.5 1.5h-16c-.83 0-1.5-.672-1.5-1.5v-20c0-.828.67-1.5 1.5-1.5h16c.827 0 1.5.672 1.5 1.5v20zM88.27 56.946h-2"/><path stroke="#FEFEFE" stroke-linecap="round" stroke-linejoin="round" mask="url(#b)" d="M80.77 54.946h13v-15h-13zM103.144 57.946c-.756 0-1.37-.613-1.37-1.37V41.968c0-.756.614-1.37 1.37-1.37h18.26c.757 0 1.37.614 1.37 1.37v14.608c0 .757-.613 1.37-1.37 1.37h-18.26zM103.6 50.185V48.36"/><path stroke="#FEFEFE" stroke-linecap="round" stroke-linejoin="round" mask="url(#b)" d="M105.427 55.207h13.696v-11.87h-13.696zM39.89 57.446c0 .828-.67 1.5-1.5 1.5h-16c-.827 0-1.5-.672-1.5-1.5v-20c0-.828.673-1.5 1.5-1.5h16c.83 0 1.5.672 1.5 1.5v20zM29.39 56.946h2"/><path stroke="#FEFEFE" stroke-linecap="round" stroke-linejoin="round" mask="url(#b)" d="M22.89 54.946h15v-17h-15zM25.39 40.946h10M25.39 43.946h10M25.39 46.946h10M25.39 49.946h5"/></g></g></svg>