<svg width="58" height="137" viewBox="0 0 58 137" xmlns="http://www.w3.org/2000/svg"><g stroke="#F46F7C" fill="none" fill-rule="evenodd"><path d="M49.46 105H8.54C4.392 105 1 101.594 1 97.43V8.57C1 4.407 4.392 1 8.538 1H49.46C53.61 1 57 4.406 57 8.57v88.86c0 4.164-3.392 7.57-7.54 7.57z" fill="#FFF"/><path d="M47.222 90H10.778C8.15 90 6 87.862 6 85.247V10.753C6 8.14 8.15 6 10.778 6h36.444C49.85 6 52 8.14 52 10.753v74.494C52 87.862 49.85 90 47.222 90zM32 97c0 1.656-1.343 3-3 3s-3-1.344-3-3 1.343-3 3-3 3 1.344 3 3z"/><g><path d="M42 124l-13.028 12L16 124.05"/><path d="M29 135.262v-29.524" stroke-linecap="square"/></g></g></svg>