<svg width="109" height="67" viewBox="0 0 109 67" xmlns="http://www.w3.org/2000/svg"><g stroke="#FEFEFE" fill="none" fill-rule="evenodd" stroke-linecap="round" stroke-linejoin="round"><path d="M69.78 40.207c0-.974.792-1.765 1.766-1.765h11.768c.974 0 1.765.79 1.765 1.765v23.535c0 .975-.792 1.766-1.766 1.766H71.546c-.974 0-1.765-.79-1.765-1.766V40.207zM84.49 60.8H70.37M77.876 63.16h-.422M84.49 43.15H70.37M78.607 40.796h-2.354M92.544 40.207c0-.974.79-1.765 1.765-1.765h11.767c.974 0 1.765.79 1.765 1.765v23.535c0 .975-.79 1.766-1.765 1.766H94.31c-.975 0-1.766-.79-1.766-1.766V40.207zM107.254 60.8h-14.12M100.64 63.16h-.423M107.254 43.15h-14.12M101.37 40.796h-2.354M47.018 40.207c0-.974.79-1.765 1.765-1.765H60.55c.975 0 1.766.79 1.766 1.765v23.535c0 .975-.79 1.766-1.765 1.766H48.784c-.974 0-1.765-.79-1.765-1.766V40.207zM61.728 60.8h-14.12M55.113 63.16h-.422M61.728 43.15h-14.12M55.844 40.796H53.49M24.255 40.207c0-.974.79-1.765 1.765-1.765h11.768c.974 0 1.765.79 1.765 1.765v23.535c0 .975-.79 1.766-1.765 1.766H26.02c-.974 0-1.765-.79-1.765-1.766V40.207zM38.965 60.8h-14.12M32.35 63.16h-.422M38.965 43.15h-14.12M33.08 40.796h-2.353M1.492 40.207c0-.974.79-1.765 1.765-1.765h11.768c.974 0 1.765.79 1.765 1.765v23.535c0 .975-.79 1.766-1.765 1.766H3.257c-.974 0-1.765-.79-1.765-1.766V40.207zM16.202 60.8H2.082M9.587 63.16h-.422M16.202 43.15H2.082M10.318 40.796H7.964M69.78 4.334c0-.974.792-1.765 1.766-1.765h11.768c.974 0 1.765.79 1.765 1.764V27.87c0 .974-.792 1.765-1.766 1.765H71.546c-.974 0-1.765-.79-1.765-1.766V4.333zM84.49 24.927H70.37M77.876 27.286h-.422M84.49 7.276H70.37M78.607 4.922h-2.354M47.018 4.334c0-.974.79-1.765 1.765-1.765H60.55c.975 0 1.766.79 1.766 1.764V27.87c0 .974-.79 1.765-1.765 1.765H48.784c-.974 0-1.765-.79-1.765-1.766V4.333zM61.728 24.927h-14.12M55.113 27.286h-.422M61.728 7.276h-14.12M55.844 4.922H53.49M24.255 4.334c0-.974.79-1.765 1.765-1.765h11.768c.974 0 1.765.79 1.765 1.764V27.87c0 .974-.79 1.765-1.765 1.765H26.02c-.974 0-1.765-.79-1.765-1.766V4.333zM38.965 24.927h-14.12M32.35 27.286h-.422M38.965 7.276h-14.12M33.08 4.922h-2.353M1.492 4.334c0-.974.79-1.765 1.765-1.765h11.768c.974 0 1.765.79 1.765 1.764V27.87c0 .974-.79 1.765-1.765 1.765H3.257c-.974 0-1.765-.79-1.765-1.766V4.333zM16.202 24.927H2.082M9.587 27.286h-.422M16.202 7.276H2.082M10.318 4.922H7.964M102.643 29.67c-4.397 0-8.576-6.308-8.576-14.09 0-7.778 4.18-14.088 8.576-14.088"/><path d="M102.643 21.094c-2.366 0-4.9-2.47-4.9-5.513 0-3.043 2.534-5.512 4.9-5.512M104.48 29.67c1.015 0 2.18-.823 2.18-1.838v-4.9c0-1.015-1.165-1.84-2.18-1.84h-1.494v8.577h1.495zM104.48 10.068c1.015 0 2.18-.822 2.18-1.838v-4.9c0-1.015-1.165-1.838-2.18-1.838h-1.494v8.576h1.495z"/></g></svg>