<svg width="192" height="66" viewBox="0 0 192 66" xmlns="http://www.w3.org/2000/svg"><g stroke="#FEFEFE" fill="none" fill-rule="evenodd" stroke-linecap="round" stroke-linejoin="round"><path d="M20.206 32.86H4.243C2.183 32.86.5 31.174.5 29.115V13.153c0-2.06 1.684-3.743 3.743-3.743h15.963c2.06 0 3.743 1.684 3.743 3.743v15.963c0 2.06-1.685 3.743-3.744 3.743z"/><path d="M25.463 14.516V29.24c0 2.823-2.31 5.133-5.133 5.133H5.606M51.18 32.86H35.216c-2.06 0-3.743-1.685-3.743-3.744V13.153c0-2.06 1.683-3.743 3.743-3.743h15.962c2.06 0 3.742 1.684 3.742 3.743v15.963c0 2.06-1.683 3.743-3.742 3.743z"/><path d="M56.437 14.516V29.24c0 2.823-2.31 5.133-5.133 5.133H36.58M82.153 32.86H66.19c-2.06 0-3.743-1.685-3.743-3.744V13.153c0-2.06 1.684-3.743 3.743-3.743h15.963c2.06 0 3.743 1.684 3.743 3.743v15.963c0 2.06-1.684 3.743-3.743 3.743z"/><path d="M87.41 14.516V29.24c0 2.823-2.31 5.133-5.133 5.133H67.553M113.126 32.86H97.163c-2.06 0-3.743-1.685-3.743-3.744V13.153c0-2.06 1.684-3.743 3.743-3.743h15.963c2.06 0 3.743 1.684 3.743 3.743v15.963c0 2.06-1.685 3.743-3.744 3.743zM147.223 17.035v1"/><path d="M147.223 22.03v7.237c0 1.975-1.616 3.592-3.592 3.592h-16.264c-1.976 0-3.592-1.618-3.592-3.593V13.002c0-1.976 1.616-3.592 3.592-3.592h13.267" stroke-dasharray="1.998,3.996"/><path d="M142.63 9.41h1M118.383 14.516V29.24c0 2.823-2.31 5.133-5.132 5.133H98.526M20.206 63.986H4.243C2.183 63.986.5 62.302.5 60.243V44.28c0-2.06 1.684-3.743 3.743-3.743h15.963c2.06 0 3.743 1.684 3.743 3.743v15.963c0 2.06-1.685 3.743-3.744 3.743z"/><path d="M25.463 45.643v14.724c0 2.823-2.31 5.133-5.133 5.133H5.606M51.18 63.986H35.216c-2.06 0-3.743-1.684-3.743-3.743V44.28c0-2.06 1.683-3.743 3.743-3.743h15.962c2.06 0 3.742 1.684 3.742 3.743v15.963c0 2.06-1.683 3.743-3.742 3.743z"/><path d="M56.437 45.643v14.724c0 2.823-2.31 5.133-5.133 5.133H36.58M82.153 63.986H66.19c-2.06 0-3.743-1.684-3.743-3.743V44.28c0-2.06 1.684-3.743 3.743-3.743h15.963c2.06 0 3.743 1.684 3.743 3.743v15.963c0 2.06-1.684 3.743-3.743 3.743z"/><path d="M87.41 45.643v14.724c0 2.823-2.31 5.133-5.133 5.133H67.553M113.126 63.986H97.163c-2.06 0-3.743-1.684-3.743-3.743V44.28c0-2.06 1.684-3.743 3.743-3.743h15.963c2.06 0 3.743 1.684 3.743 3.743v15.963c0 2.06-1.685 3.743-3.744 3.743z"/><path d="M118.383 45.643v14.724c0 2.823-2.31 5.133-5.132 5.133H98.526M143.48 63.986h-15.963c-2.06 0-3.743-1.684-3.743-3.743V44.28c0-2.06 1.684-3.743 3.743-3.743h15.963c2.06 0 3.743 1.684 3.743 3.743v15.963c0 2.06-1.684 3.743-3.743 3.743z"/><path d="M147.223 60.394c0 1.976-1.616 3.592-3.592 3.592h-16.264c-1.976 0-3.592-1.616-3.592-3.592V44.13c0-1.977 1.616-3.593 3.592-3.593h16.265"/><path d="M148.737 45.643v14.724c0 2.823-2.31 5.133-5.133 5.133H128.88M150.254 8.706c-.977-1.086-.613-2.842.743-3.588.19-.104.406-.192.632-.18.562.027.815.598.89 1.067.245 1.564.012 3.15.085 4.726.073 1.577.514 3.238 1.84 4.356.186.158.454.312.696.222.192-.072.266-.263.313-.434.56-2.024.2-4.217-.99-6.037 1.546-.32 2.963-1.07 3.973-2.104M162.23 6.815c-.616-.546-1.663-.196-2.124.485-.46.68-.5 1.553-.522 2.375-.016.604-.03 1.23.204 1.788.234.558.786 1.03 1.388.972.456-.045.835-.376 1.113-.74 1.114-1.466.954-3.75-.354-5.046-.292.13-.108.64.21.682.317.042.6-.194.818-.43 1.567-1.68 2.22-4.167 1.683-6.402.028 3.3.32 6.598.874 9.85.077.452.183.944.545 1.224.474.367 1.21.18 1.615-.262.403-.443.544-1.064.608-1.66.09-.832.064-1.676-.08-2.5.31.63 1.292.132 1.638-.48.345-.61.79-1.43 1.475-1.277-.117.78-.234 1.58-.084 2.357.15.776.626 1.536 1.367 1.81.824.304 1.78-.075 2.38-.72.596-.643.898-1.503 1.123-2.352.148-.56.266-1.168.046-1.704-.22-.535-.91-.91-1.4-.598-.236.15-.37.418-.47.68-.437 1.146-.448 2.45-.03 3.603.106.294.25.592.508.77.427.296 1.015.166 1.487-.05 1.385-.637 2.438-1.953 2.755-3.444M164.86 3.88c1.372.055 2.755-.22 4-.797M159.77 22.58c-.584-.2-1.25.1-1.64.58-.39.48-.556 1.1-.665 1.71-.212 1.17.04 2.767 1.218 2.947.952.146 1.72-.855 1.87-1.806.15-.95-.076-1.933.08-2.883.177 1.078.562 2.386 1.635 2.596.843.165 1.66-.533 1.94-1.346.278-.813.154-1.702.026-2.552.564 3.877 1.128 7.754 1.69 11.63"/><path d="M164.426 22.718c-.256-.44.34-.995.83-.86.492.136.766.67.84 1.175.074.504.01 1.023.11 1.522.102.5.444 1.01.95 1.065.49.053.93-.355 1.09-.82.157-.464.098-.97.038-1.46M168.744 21.22c.988 5.416 1.082 6.82 2.07 12.237"/><path d="M168.827 22.8c-.126-.588.754-.956 1.265-.64.512.313.7.95.865 1.53.165.577.396 1.212.94 1.47.456-.297.793-.776.916-1.307M172.813 23.602c1.215-1.918 2.076-5.055 1.922-7.32-.015-.22-.042-.454-.184-.622-.268-.318-.823-.213-1.092.106-.27.32-.324.762-.348 1.18-.095 1.673.136 3.365.677 4.95.247.725.654 1.512 1.396 1.694.594.146 1.208-.157 1.687-.536 1.12-.885 1.84-2.256 1.936-3.68-.123.55-.246 1.125-.104 1.67.142.544.64 1.04 1.2.977.715-.08 1.04-.925 1.16-1.635M185.108 11.566c-.49-.46-.314-1.334.187-1.782.5-.448 1.203-.577 1.868-.673.42-.058.858-.11 1.265.01 1.082.328 1.456 1.74 1.173 2.833-.283 1.094-1.007 2.016-1.45 3.055-.444 1.04-.534 2.398.3 3.16M179.25 16.524c-.12-.574-.055-1.186.185-1.722M191.092 22.92c-.427-.4-.723-.94-.832-1.518M134.644 24.52c-.128-1.113.332-2.21.903-3.174 2.478-4.18 7.952-8.916 14.154-8.906"/><path d="M132.292 20.718c.216 1.802 1 3.533 2.212 4.883.698-1.465 1.93-2.668 3.412-3.332"/></g></svg>