<svg width="149" height="66" viewBox="0 0 149 66" xmlns="http://www.w3.org/2000/svg"><g stroke="#FEFEFE" fill="none" fill-rule="evenodd"><path d="M31.915 65.5H6.23c-2.6 0-4.73-2.13-4.73-4.732V5.232C1.5 2.63 3.63.5 6.23.5h25.685c2.603 0 4.732 2.13 4.732 4.732v55.536c0 2.603-2.13 4.732-4.732 4.732z"/><path d="M30.473 56.46h-22.8c-1.645 0-2.99-1.344-2.99-2.99V6.61c0-1.644 1.345-2.99 2.99-2.99h22.8c1.644 0 2.99 1.346 2.99 2.99v46.86c0 1.646-1.346 2.99-2.99 2.99zM13.474 60.37c0-.427.347-.773.778-.773h10.03c.43 0 .78.342.78.772v.773c0 .426-.347.772-.78.772h-10.03c-.43 0-.778-.342-.778-.772v-.774z"/><path d="M15.713 26.077H9.938c-.777 0-1.412-.636-1.412-1.412V18.89c0-.777.635-1.413 1.412-1.413h5.775c.777 0 1.412.636 1.412 1.413v5.775c0 .776-.635 1.412-1.412 1.412zM28.597 26.077h-5.775c-.777 0-1.412-.636-1.412-1.412V18.89c0-.777.635-1.413 1.412-1.413h5.775c.777 0 1.412.636 1.412 1.413v5.775c0 .776-.636 1.412-1.413 1.412zM15.713 38.03H9.938c-.777 0-1.412-.637-1.412-1.413v-5.775c0-.777.635-1.413 1.412-1.413h5.775c.777 0 1.412.635 1.412 1.412v5.775c0 .776-.635 1.412-1.412 1.412zM28.597 38.03h-5.775c-.777 0-1.412-.637-1.412-1.413v-5.775c0-.777.635-1.413 1.412-1.413h5.775c.777 0 1.412.635 1.412 1.412v5.775c0 .776-.636 1.412-1.413 1.412zM15.713 50.387H9.938c-.777 0-1.412-.636-1.412-1.412V43.2c0-.777.635-1.413 1.412-1.413h5.775c.777 0 1.412.636 1.412 1.412v5.775c0 .776-.635 1.412-1.412 1.412zM28.597 50.387h-5.775c-.777 0-1.412-.636-1.412-1.412V43.2c0-.777.635-1.413 1.412-1.413h5.775c.777 0 1.412.636 1.412 1.412v5.775c0 .776-.636 1.412-1.413 1.412zM43.87 26.077h-5.776c-.777 0-1.412-.636-1.412-1.412V18.89c0-.777.635-1.413 1.412-1.413h5.775c.776 0 1.41.636 1.41 1.413v5.775c0 .776-.634 1.412-1.41 1.412z" stroke-linecap="round" stroke-linejoin="round"/><path d="M56.753 26.077h-5.775c-.777 0-1.412-.636-1.412-1.412V18.89c0-.777.635-1.413 1.412-1.413h5.775c.777 0 1.412.636 1.412 1.413v5.775c0 .776-.635 1.412-1.412 1.412z" stroke-linecap="round" stroke-linejoin="round" opacity=".8"/><path d="M43.87 38.03h-5.776c-.777 0-1.412-.637-1.412-1.413v-5.775c0-.777.635-1.413 1.412-1.413h5.775c.776 0 1.41.635 1.41 1.412v5.775c0 .776-.634 1.412-1.41 1.412z" stroke-linecap="round" stroke-linejoin="round"/><path d="M56.753 38.03h-5.775c-.777 0-1.412-.637-1.412-1.413v-5.775c0-.777.635-1.413 1.412-1.413h5.775c.777 0 1.412.635 1.412 1.412v5.775c0 .776-.635 1.412-1.412 1.412z" stroke-linecap="round" stroke-linejoin="round" opacity=".8"/><path d="M43.87 50.387h-5.776c-.777 0-1.412-.636-1.412-1.412V43.2c0-.777.635-1.413 1.412-1.413h5.775c.776 0 1.41.636 1.41 1.412v5.775c0 .776-.634 1.412-1.41 1.412z" stroke-linecap="round" stroke-linejoin="round"/><path d="M56.753 50.387h-5.775c-.777 0-1.412-.636-1.412-1.412V43.2c0-.777.635-1.413 1.412-1.413h5.775c.777 0 1.412.636 1.412 1.412v5.775c0 .776-.635 1.412-1.412 1.412z" stroke-linecap="round" stroke-linejoin="round" opacity=".8"/><path d="M69.568 26.077h-5.775c-.777 0-1.413-.636-1.413-1.412V18.89c0-.777.636-1.413 1.413-1.413h5.775c.777 0 1.412.636 1.412 1.413v5.775c0 .776-.635 1.412-1.412 1.412zM69.568 38.03h-5.775c-.777 0-1.413-.637-1.413-1.413v-5.775c0-.777.636-1.413 1.413-1.413h5.775c.777 0 1.412.635 1.412 1.412v5.775c0 .776-.635 1.412-1.412 1.412zM69.568 50.387h-5.775c-.777 0-1.413-.636-1.413-1.412V43.2c0-.777.636-1.413 1.413-1.413h5.775c.777 0 1.412.636 1.412 1.412v5.775c0 .776-.635 1.412-1.412 1.412z" stroke-linecap="round" stroke-linejoin="round" opacity=".6"/><path d="M82.196 26.077H76.42c-.776 0-1.41-.636-1.41-1.412V18.89c0-.777.634-1.413 1.41-1.413h5.776c.777 0 1.412.636 1.412 1.413v5.775c0 .776-.635 1.412-1.412 1.412z" stroke-linecap="round" stroke-linejoin="round" opacity=".5"/><path d="M95.08 26.077h-5.775c-.777 0-1.412-.636-1.412-1.412V18.89c0-.777.635-1.413 1.412-1.413h5.775c.777 0 1.412.636 1.412 1.413v5.775c0 .776-.635 1.412-1.412 1.412z" stroke-linecap="round" stroke-linejoin="round" opacity=".4"/><path d="M82.196 38.03H76.42c-.776 0-1.41-.637-1.41-1.413v-5.775c0-.777.634-1.413 1.41-1.413h5.776c.777 0 1.412.635 1.412 1.412v5.775c0 .776-.635 1.412-1.412 1.412z" stroke-linecap="round" stroke-linejoin="round" opacity=".5"/><path d="M95.08 38.03h-5.775c-.777 0-1.412-.637-1.412-1.413v-5.775c0-.777.635-1.413 1.412-1.413h5.775c.777 0 1.412.635 1.412 1.412v5.775c0 .776-.635 1.412-1.412 1.412z" stroke-linecap="round" stroke-linejoin="round" opacity=".4"/><path d="M82.196 50.387H76.42c-.776 0-1.41-.636-1.41-1.412V43.2c0-.777.634-1.413 1.41-1.413h5.776c.777 0 1.412.636 1.412 1.412v5.775c0 .776-.635 1.412-1.412 1.412z" stroke-linecap="round" stroke-linejoin="round" opacity=".5"/><path d="M95.08 50.387h-5.775c-.777 0-1.412-.636-1.412-1.412V43.2c0-.777.635-1.413 1.412-1.413h5.775c.777 0 1.412.636 1.412 1.412v5.775c0 .776-.635 1.412-1.412 1.412z" stroke-linecap="round" stroke-linejoin="round" opacity=".4"/><path d="M107.895 26.077h-5.775c-.777 0-1.412-.636-1.412-1.412V18.89c0-.777.635-1.413 1.412-1.413h5.775c.777 0 1.412.636 1.412 1.413v5.775c0 .776-.635 1.412-1.412 1.412zM107.895 38.03h-5.775c-.777 0-1.412-.637-1.412-1.413v-5.775c0-.777.635-1.413 1.412-1.413h5.775c.777 0 1.412.635 1.412 1.412v5.775c0 .776-.635 1.412-1.412 1.412zM107.895 50.387h-5.775c-.777 0-1.412-.636-1.412-1.412V43.2c0-.777.635-1.413 1.412-1.413h5.775c.777 0 1.412.636 1.412 1.412v5.775c0 .776-.635 1.412-1.412 1.412z" stroke-linecap="round" stroke-linejoin="round" opacity=".3"/><path d="M120.522 26.077h-5.775c-.777 0-1.413-.636-1.413-1.412V18.89c0-.777.636-1.413 1.413-1.413h5.775c.777 0 1.412.636 1.412 1.413v5.775c0 .776-.635 1.412-1.412 1.412z" stroke-linecap="round" stroke-linejoin="round" opacity=".2"/><path d="M133.406 26.077h-5.775c-.776 0-1.41-.636-1.41-1.412V18.89c0-.777.634-1.413 1.41-1.413h5.776c.777 0 1.412.636 1.412 1.413v5.775c0 .776-.635 1.412-1.412 1.412z" stroke-linecap="round" stroke-linejoin="round" opacity=".15"/><path d="M120.522 38.03h-5.775c-.777 0-1.413-.637-1.413-1.413v-5.775c0-.777.636-1.413 1.413-1.413h5.775c.777 0 1.412.635 1.412 1.412v5.775c0 .776-.635 1.412-1.412 1.412z" stroke-linecap="round" stroke-linejoin="round" opacity=".2"/><path d="M133.406 38.03h-5.775c-.776 0-1.41-.637-1.41-1.413v-5.775c0-.777.634-1.413 1.41-1.413h5.776c.777 0 1.412.635 1.412 1.412v5.775c0 .776-.635 1.412-1.412 1.412z" stroke-linecap="round" stroke-linejoin="round" opacity=".15"/><path d="M120.522 50.387h-5.775c-.777 0-1.413-.636-1.413-1.412V43.2c0-.777.636-1.413 1.413-1.413h5.775c.777 0 1.412.636 1.412 1.412v5.775c0 .776-.635 1.412-1.412 1.412z" stroke-linecap="round" stroke-linejoin="round" opacity=".2"/><path d="M133.406 50.387h-5.775c-.776 0-1.41-.636-1.41-1.412V43.2c0-.777.634-1.413 1.41-1.413h5.776c.777 0 1.412.636 1.412 1.412v5.775c0 .776-.635 1.412-1.412 1.412z" stroke-linecap="round" stroke-linejoin="round" opacity=".15"/><path d="M146.22 26.077h-5.774c-.777 0-1.412-.636-1.412-1.412V18.89c0-.777.635-1.413 1.412-1.413h5.775c.778 0 1.413.636 1.413 1.413v5.775c0 .776-.635 1.412-1.412 1.412zM146.22 38.03h-5.774c-.777 0-1.412-.637-1.412-1.413v-5.775c0-.777.635-1.413 1.412-1.413h5.775c.778 0 1.413.635 1.413 1.412v5.775c0 .776-.635 1.412-1.412 1.412zM146.22 50.387h-5.774c-.777 0-1.412-.636-1.412-1.412V43.2c0-.777.635-1.413 1.412-1.413h5.775c.778 0 1.413.636 1.413 1.412v5.775c0 .776-.635 1.412-1.412 1.412z" stroke-linecap="round" stroke-linejoin="round" opacity=".097"/></g></svg>