<svg width="145" height="66" viewBox="0 0 145 66" xmlns="http://www.w3.org/2000/svg" xmlns:xlink="http://www.w3.org/1999/xlink"><defs><path id="a" d="M0 66h144.183V0H0z"/></defs><g fill="none" fill-rule="evenodd"><g><path d="M101.016 33c0 17.948-14.552 32.5-32.5 32.5s-32.5-14.552-32.5-32.5c0-17.95 14.552-32.5 32.5-32.5s32.5 14.55 32.5 32.5zM38.547 32.993h61.75M42.52 52.493h51.277M42.52 13.493h51.277" stroke="#FEFEFE" stroke-linecap="round" stroke-linejoin="round"/><path d="M68.516 65.325c9.705-6.465 16.25-18.497 16.25-32.312 0-13.813-6.545-25.845-16.25-32.307M68.513 65.325c-9.705-6.465-16.25-18.497-16.25-32.312 0-13.813 6.545-25.845 16.25-32.307M23.01 32.992h89.447M105.612 27.34l8.12 5.653-8.12 4.71M31.13 38.174l-8.12-5.182 8.12-5.18M143.683 36.996c0 .828-.672 1.5-1.5 1.5h-20c-.828 0-1.5-.672-1.5-1.5v-14c0-.828.672-1.5 1.5-1.5h20c.828 0 1.5.672 1.5 1.5v14zM121.183 23.496h22M121.183 35.496h22M136.404 40.496h-12l-2 4h15zM141.183 44.496c-.824 0-1.5-.675-1.5-1.5v-1c0-.825.676-1.5 1.5-1.5.826 0 1.5.675 1.5 1.5v1c0 .825-.674 1.5-1.5 1.5zM123.63 27.047h6.936M123.63 29.377h6.936M123.63 31.94h6.936" stroke="#FEFEFE" stroke-linecap="round" stroke-linejoin="round"/><mask id="b" fill="#fff"><use xlink:href="#a"/></mask><path stroke="#FEFEFE" stroke-linecap="round" stroke-linejoin="round" mask="url(#b)" d="M133.234 29.996h7.5v-2.95h-7.5zM13.5 42.996c0 .828-.672 1.5-1.5 1.5H2c-.828 0-1.5-.672-1.5-1.5v-20c0-.828.672-1.5 1.5-1.5h10c.828 0 1.5.672 1.5 1.5v20zM1 25.496h12M1 40.496h12M22 22.496h-2.5v4h3v-2H22M17.36 22.746l-2.14 2.75h2.28v1.5M6 42.496h2M2.993 27.376h7.456M2.993 29.386h7.456"/><path stroke="#FEFEFE" stroke-linecap="round" stroke-linejoin="round" mask="url(#b)" d="M2.993 38.142h7.456v-6.67H2.992z"/></g><path d="M38.16 60.007c-2.57.13-4.45-.422-5.426-1.734-3.984-5.386 8.65-21.5 28.227-36C80.53 7.772 99.64.375 103.625 5.755c.877 1.187.948 2.896.31 4.998" stroke="#FEFEFE" stroke-linecap="round" stroke-linejoin="round"/></g></svg>