<svg id="Calque_1" xmlns="http://www.w3.org/2000/svg" viewBox="0 0 608.9 101.7"><style>.st0{fill:#FEE05C;} .st1{fill:#149BC3;} .st2{fill:#FFFFFF;} .st3{fill:#F46F7C;} .st4{fill:#259CC2;} .st5{fill:#FEDF5E;} .st6{fill:#2E3191;} .st7{fill:none;}</style><path class="st2" d="M54.6 99.8H44.3v-8.4h-.2c-4.1 6.1-10.6 10.2-18.3 10.2C9.3 101.7 0 88 0 72.6c0-14.7 9.8-28.2 25.4-28.2 7.9 0 14.4 4.1 18.6 10.6h.2v-9h10.4v53.8zm-9.7-26.9c0-10.5-6.3-19.3-17.5-19.3-10.7 0-17 9.3-17 19.3 0 10.1 6.1 19.6 17 19.6 11.2 0 17.5-9 17.5-19.6zm32.3 26.9H66.8V0h10.4v99.8zm19.2-25.2c.1 9.2 6.3 17.8 16.2 17.8 7.9 0 12.2-4 16.1-10.5l8.7 4.9c-5.1 9.3-14.5 14.7-25 14.7-16.3.2-26.4-12.2-26.4-28.1 0-16.6 8.9-29 26.2-29 17.1 0 25.2 12.7 25.2 28.6v1.6h-41zm30.7-7.8c-1.3-8.1-6.6-13.5-14.8-13.5-8 0-14 5.8-15.3 13.5h30.1z"/><path class="st2" d="M140.6 46h12.2l12.8 17.4L179.5 46H192l-19.8 24.6 23.1 29.2h-12.1L165.5 78l-17.1 21.9h-12.5l24-29.2L140.6 46zm110.5 20.1c2-1.6 4.1-3.2 6.1-4.8 1.4-1.1 2.7-1.5 4.3-.4 1.6 1 2.2 2.3.9 3.6-2.5 2.4-5.1 4.7-7.8 6.9-1.3 1.1-2.9 1.9-4.3 2.9-.5.4-.8 1.2-.8 1.8-.1 3.4-.7 6.8.6 10 .2.4.4.8.6 1.3 1.7-1.3 3.3-2.6 4.8-3.8 1.8-1.5 3.6-3.1 5.4-4.7.8-.7 1.7-1.2 2.2-2.1 1-1.6 1.8-.7 2.8-.1 1.1.8 1.1 1.8.4 2.6-2.6 3.2-5.3 6.3-8.1 9.4-.9 1-2 2-3.2 2.8-2.7 1.9-5.7 2.2-7.9-.8-.6-.8-1.4-1.5-1.9-2.4-.5-.8-.9-1.7-1.4-2.6-2.3 2.6-4.6 5-6.7 7.6-1.5 1.8-3.3 3.2-5.4 4.3-2.8 1.3-6.3.5-8.5-2-.8-.9-1.4-2.1-2.3-3-.5-.5-1.4-.7-2-.7-2.3.2-4.9-1.2-5.6-3.3-.1-.4.6-1.2 1-1.6.2-.2.8 0 1.2 0 2.2-.1 4-1.1 3.6-3.6-.4-2.7 0-5.3 1.2-7.8.9-2 1.4-4.1 2.1-6.2 1.1-3 6.9-5.7 9.6-4.7 2 .8 2.8 2.5 3.5 4.4 1.4 3.4-.1 6.3-1.9 8.9-2.3 3.2-4.9 6.3-7.4 9.4-1.1 1.4-.7 4.5.9 5.4 1.3.8 2.1-.2 2.8-.9 2.7-2.9 5.2-6 8-8.9 2-2.1 2.9-4.8 4.1-7.3 1.9-4.2 2.1-8.9 3-13.4.8-4.2 1.3-8.4 1.9-12.6.3-2.2.9-2.5 3-1.9 4.4 1.2 3.3 1.2 3.1 5.2-.2 3.4-.8 6.8-1.3 10.1-.1.9-.4 1.7-.6 2.6-.2.3-.1.3 0 .4zm-20.9 3.7c-2.1 1.2-4.4 5.6-4.5 8.8 2.2-2.8 4-5.3 4.5-8.8zM305.4 52.8h.2c3-4.7 8.4-8.4 14.3-8.4 7 0 12.1 3.6 15.5 9.5 3.3-5.8 9.8-9.5 16.6-9.5 14.1 0 17.8 11 17.8 23.2v32.2h-10.4V69.4c0-6.9-.9-15.8-10-15.8-11 0-11.8 11.5-11.8 19.8v26.5h-10.4V71.3c0-7-.3-17.7-9.9-17.7-11 0-12 11.4-12 19.8v26.5h-10.4V46h10.4v6.8zm127 47H422v-8.4h-.2c-4.1 6.1-10.6 10.2-18.3 10.2-16.4 0-25.8-13.7-25.8-29.1 0-14.7 9.8-28.2 25.4-28.2 7.9 0 14.4 4.1 18.6 10.6h.2v-9h10.4v53.9zm-9.7-26.9c0-10.5-6.3-19.3-17.5-19.3-10.7 0-17 9.3-17 19.3 0 10.1 6.1 19.6 17 19.6 11.3 0 17.5-9 17.5-19.6zm31.8-19.6h.2c3.2-5.8 9.7-8.9 16.2-8.9 15.2 0 19.1 10.2 19.1 23.4v32.1h-10.4V69c0-9.2-1.3-15.4-11.8-15.4-13.3 0-13.3 11.7-13.3 21.5v24.7h-10.4V46h10.4v7.3zM555.3 73c0 16.2-12.7 28.6-28.8 28.6S497.7 89.2 497.7 73c0-16.2 12.7-28.6 28.8-28.6 16.2 0 28.8 12.4 28.8 28.6zm-47.2 0c0 10.1 8.2 18.7 18.4 18.7S545 83.2 545 73s-8.2-18.7-18.4-18.7-18.5 8.5-18.5 18.7zm65.3-19.7h.2c3.2-5.8 9.7-8.9 16.2-8.9 15.2 0 19.1 10.2 19.1 23.4v32.1h-10.4V69c0-9.2-1.3-15.4-11.8-15.4-13.3 0-13.3 11.7-13.3 21.5v24.7H563V46h10.4v7.3z"/></svg>