<svg width="197" height="86" viewBox="0 0 197 86" xmlns="http://www.w3.org/2000/svg" xmlns:xlink="http://www.w3.org/1999/xlink"><defs><path id="a" d="M0 85.14h196.864V0H0z"/></defs><g fill="none" fill-rule="evenodd"><path d="M126.983 54.056v24.46c0 3.368-2.756 6.125-6.125 6.125H87.612c-3.37 0-6.125-2.754-6.125-6.122V6.628c0-3.37 2.756-6.128 6.125-6.128h33.246c3.37 0 6.125 2.756 6.125 6.125v47.43z" stroke="#259CC2"/><path d="M106.702 78.61c0 1.363-1.104 2.468-2.467 2.468-1.362 0-2.466-1.105-2.466-2.467 0-1.36 1.1-2.464 2.463-2.464s2.467 1.105 2.467 2.467z" stroke="#259CC2"/><path d="M61.68 19.68c0 9.62-7.797 17.42-17.42 17.42-9.618 0-17.417-7.8-17.417-17.42 0-9.622 7.8-17.42 17.418-17.42 9.625 0 17.42 7.798 17.42 17.42zM43.81 3.373V6.54m0 26.918v3.167M27.974 20h3.167m26.92 0h3.168" stroke="#259CC2" stroke-linecap="round" stroke-linejoin="round"/><path d="M50.358 15.754c0 3.388-2.747 9.303-6.137 9.303-3.385 0-6.132-5.915-6.132-9.303 0-3.39 2.747-6.137 6.135-6.137 3.39 0 6.138 2.748 6.138 6.137z" stroke="#259CC2" stroke-linecap="round" stroke-linejoin="round"/><path d="M42.225 24.75h-2.088c-2.004 0-4.246 1.337-4.246 3.34v2.2m11.087-5.54H49.1c2.003 0 2.627 1.337 2.627 3.34v2.2" stroke="#259CC2" stroke-linecap="round" stroke-linejoin="round"/><path d="M56.947 50.536v29.24c0 2.525 2.047 4.572 4.572 4.572s4.57-2.047 4.57-4.573v-29.24" stroke="#259CC2"/><path d="M56.947 50.536c0-1.87-1.514-3.38-3.38-3.38m12.525 3.38c0-1.87 1.514-3.38 3.38-3.38M58.09 51.68h8.002m-8.002 4.572h3.43m-3.43 4.573h3.43m-3.43 4.572h3.43" stroke="#259CC2" stroke-linecap="round"/><path d="M70.126 33.047c-1.812 0-3.286 1.476-3.286 3.288 0 1.812 1.474 3.285 3.286 3.285s3.286-1.473 3.286-3.285c0-1.813-1.474-3.288-3.286-3.288m0 1c1.264 0 2.286 1.023 2.286 2.288 0 1.264-1.022 2.285-2.286 2.285s-2.286-1.02-2.286-2.285c0-1.266 1.022-2.288 2.286-2.288m-9.144 6.86c-1.264 0-2.286 1.022-2.286 2.286s1.022 2.287 2.286 2.287 2.286-1.023 2.286-2.287-1.022-2.286-2.286-2.286m0 1c.71 0 1.286.577 1.286 1.286 0 .71-.577 1.287-1.286 1.287-.71 0-1.286-.577-1.286-1.287s.577-1.286 1.286-1.286" fill="#259CC2"/><path stroke="#259CC2" stroke-linecap="round" stroke-linejoin="round" d="M158.98 48.632l11.505 10.602 25.88-40.08-54.46 17.256 9.897 7.9"/><path stroke="#259CC2" stroke-linecap="round" stroke-linejoin="round" d="M151.07 43.705v12.833l7.85-8.315"/><path stroke="#259CC2" stroke-linecap="round" stroke-linejoin="round" d="M151.79 44.305l44.574-25.152-37.445 29.07m-20.144-2.836l4.82 6.024-4.82 6.026"/><path d="M100.198 64.436c-6.08-4.465-18.964-24.358-9.36-31.987 7.186-5.71 16.41 1.896 12.418 13.342-4.85 13.907 6.452 20.264 13.196 16.15 7.434-4.538 8.048-17.49-2.764-26.024-5.817-4.59-9.518-9.666-8.306-16.68 1.576-9.136 16.07-9.816 19.674 5.846 3.603 15.663 6.8 26.324 12.42 26.324h4.85" stroke="#259CC2" stroke-linecap="round" stroke-linejoin="round"/><mask id="b" fill="#fff"><use xlink:href="#a"/></mask><path stroke="#259CC2" stroke-linecap="round" stroke-linejoin="round" mask="url(#b)" d="M.5 57.68h46v-10H.5zm40-5v-4m-4 2v-2m-4 4v-4m-4 2v-2m-4 4v-4m-4 2v-2m-4 4v-4m-4 2v-2m-4 4v-4m-4 2v-2"/></g></svg>