<svg width="101" height="65" viewBox="0 0 101 65" xmlns="http://www.w3.org/2000/svg"><g stroke="#FFF" fill="none" fill-rule="evenodd" stroke-linecap="round"><path d="M92 38c0 10.837-3.547 25-19.5 25S53 48.837 53 38h39zM55 64h37"/><path d="M100 48.5c0 2.485-2.016 4.5-4.5 4.5-2.486 0-4.5-2.015-4.5-4.5s2.014-4.5 4.5-4.5c2.484 0 4.5 2.015 4.5 4.5zM67.5 29c-1.732-2.25 1.732-6.75 0-9M71.5 29c-1.732-2.333 1.732-11.667 0-14M76.5 29c-1.732-2.25 1.732-6.75 0-9"/><path d="M33 20H1v40.778C1 62.558 2.433 64 4.2 64h25.6c1.767 0 3.2-1.443 3.2-3.222V20zM42 46.727C42 49.482 38.908 52 36.046 52H33V26h3.046C38.908 26 42 27.363 42 30.118v16.61z" stroke-linejoin="round"/><path d="M12.5 14c-1.732-2.25 1.732-6.75 0-9M17.5 14c-1.732-2.333 1.732-11.667 0-14M21.5 14c-1.732-2.25 1.732-6.75 0-9"/></g></svg>