<svg width="138" height="66" viewBox="0 0 138 66" xmlns="http://www.w3.org/2000/svg"><g stroke="#FEFEFE" fill="none" fill-rule="evenodd"><path d="M30.992 64.545H6.074c-2.524 0-4.59-2.066-4.59-4.59V6.074c0-2.524 2.066-4.59 4.59-4.59h24.918c2.525 0 4.59 2.066 4.59 4.59v53.88c0 2.524-2.065 4.59-4.59 4.59z"/><path d="M29.594 55.776H7.474c-1.596 0-2.9-1.305-2.9-2.9V7.412c0-1.595 1.304-2.9 2.9-2.9h22.12c1.595 0 2.9 1.305 2.9 2.9v45.462c0 1.596-1.305 2.9-2.9 2.9zM13.1 59.567c0-.413.338-.75.756-.75h9.732c.417 0 .755.333.755.75v.75c0 .414-.336.75-.755.75h-9.732c-.417 0-.755-.332-.755-.75v-.75z"/><path d="M132.546 53.3c.207 5.776-9.66 10.82-22.042 11.268-12.376.444-22.583-3.88-22.792-9.655l-.16-4.48c-.09-2.477 1.846-4.556 4.32-4.646l2.993-.108c2.475-.09 4.555 1.846 4.644 4.32l.163 4.483c.087 2.473 4.845 4.314 10.62 4.106 5.774-.208 10.39-2.386 10.3-4.86l-.165-4.482c-.085-2.478 1.847-4.555 4.323-4.646l2.992-.107c2.477-.088 4.554 1.846 4.646 4.32l.158 4.485z" stroke-linecap="round" stroke-linejoin="round"/><path d="M35.657 15.365c-.612 1.918.812 4.022 2.66 4.82 1.846.8 3.96.61 5.946.278 1.44-.24 2.928-.572 4.077-1.475 1.148-.903 1.85-2.534 1.258-3.87-.838-.5-1.99-.137-2.626.603-.637.742-.852 1.755-.908 2.73-.1 1.692.275 3.517 1.492 4.7 1.525 1.48 3.922 1.565 6.022 1.232 1.242-.196 2.52-.534 3.457-1.373.936-.84 1.413-2.303.793-3.396-.986-.486-2.242-.074-2.98.74-.735.816-1.032 1.94-1.125 3.035-.215 2.54.724 5.33 2.9 6.663 1.765 1.08 3.98 1.036 6.04.845 1.075-.1 2.26-.287 2.94-1.122 1.02-1.25.123-3.368-1.415-3.848-1.54-.478-3.26.403-4.162 1.737-.9 1.335-1.127 3.015-1.114 4.627.023 2.624.706 5.395 2.61 7.202 1.902 1.806 5.243 2.224 7.1.37.858-1.35-.36-3.292-1.935-3.577-1.574-.286-3.144.645-4.2 1.847-2.1 2.394-2.65 6.13-1.053 8.887 1.596 2.758 5.362 4.13 8.248 2.782.27-.127.537-.278.743-.495.678-.717.432-1.998-.344-2.61-.775-.61-1.886-.638-2.82-.317-1.594.548-2.77 2-3.274 3.607-.504 1.608-.404 3.352-.03 4.994.36 1.592 1.084 3.254 2.534 4 1.294.67 2.862.448 4.264.05 1.108-.312 2.26-.78 2.898-1.738.638-.958.452-2.52-.614-2.955-.787-.32-1.725.1-2.243.774-.518.675-.705 1.542-.83 2.383-.22 1.473-.273 3.067.473 4.356 1 1.732 3.325 2.443 5.24 1.863 1.915-.58 3.377-2.25 4.043-4.14.184-.518.314-1.087.16-1.616-.155-.53-.68-.982-1.223-.883-.51.093-.83.61-.96 1.11-.476 1.833 1.125 3.895 3.018 3.89 2.092-.01 3.573-2.015 4.488-3.897.915-1.88.546-3.97 2.453-4.83M137.71 33.137c-3.243-2.29-7.19-3.65-11.462-3.65-4.272 0-8.22 1.36-11.46 3.65M134.353 36.92c-2.292-1.622-5.083-2.583-8.105-2.583-3.023 0-5.814.96-8.107 2.582M131 40.7c-1.344-.948-2.98-1.513-4.752-1.513-1.773 0-3.408.565-4.753 1.514M107.538 64.6h20.427" stroke-linecap="round" stroke-linejoin="round"/></g></svg>