<svg width="262" height="149" viewBox="0 0 262 149" xmlns="http://www.w3.org/2000/svg" xmlns:xlink="http://www.w3.org/1999/xlink"><defs><path id="a" d="M.105 47H44.99V.023H.104V47z"/><path id="c" d="M.08 46.908h45.757V.023H.08z"/><path id="e" d="M0 149h262V0H0z"/></defs><g fill="none" fill-rule="evenodd"><g transform="translate(73 102)"><mask id="b" fill="#fff"><use xlink:href="#a"/></mask><path d="M36.957 23.418c0-8.585-5.197-15.847-14.363-15.847-8.787 0-13.983 7.643-13.983 15.848 0 8.302 5.008 16.037 13.984 16.037 9.26 0 14.363-7.36 14.363-16.037zm8.032 22.074h-8.504v-6.884h-.19C32.894 43.604 27.6 47 21.27 47 7.76 47 .105 35.776.105 23.137.105 11.063 8.137.023 20.987.023c6.52 0 11.813 3.396 15.31 8.68h.19v-7.36h8.502v44.15z" fill="#F46F7C" mask="url(#b)"/></g><path d="M136.347 109.35h.184c2.597-4.77 7.79-7.35 13.077-7.35 12.24 0 15.393 8.497 15.393 19.376V148h-8.347v-25.578c0-7.632-1.02-12.786-9.55-12.786-10.756 0-10.756 9.735-10.756 17.847V148H128v-44.663h8.347v6.013z" fill="#F46F7C"/><g transform="translate(171 102)"><mask id="d" fill="#fff"><use xlink:href="#c"/></mask><path d="M8.315 23.466c0 8.285 6.497 15.347 14.642 15.347 8.146 0 14.644-7.062 14.644-15.347 0-8.376-6.497-15.347-14.643-15.347-8.145 0-14.642 6.97-14.642 15.346m37.522 0c0 13.276-10.067 23.443-22.88 23.443C10.147 46.91.08 36.74.08 23.465.08 10.192 10.145.023 22.956.023c12.813 0 22.88 10.17 22.88 23.443" fill="#F46F7C" mask="url(#d)"/></g><path d="M233.347 109.35h.184c2.597-4.77 7.79-7.35 13.077-7.35 12.24 0 15.393 8.497 15.393 19.376V148h-8.347v-25.578c0-7.632-1.02-12.786-9.55-12.786-10.756 0-10.756 9.735-10.756 17.847V148H225v-44.663h8.347v6.013z" fill="#F46F7C"/><mask id="f" fill="#fff"><use xlink:href="#e"/></mask><path fill="#259CC2" mask="url(#f)" d="M56 83h8V0h-8M105.545 53.407C104.51 46.8 100.19 42.36 93.423 42.36c-6.575 0-11.463 4.72-12.496 11.047h24.618zM80.46 59.82c.092 7.553 5.165 14.63 13.245 14.63 6.484 0 9.96-3.302 13.156-8.59l7.14 4.06C109.867 77.568 102.162 82 93.61 82 80.177 82 72 71.808 72 58.787 72 45.194 79.236 35 93.423 35c14 0 20.577 10.384 20.577 23.5v1.32H80.46z"/><path fill="#259CC2" mask="url(#f)" d="M116.967 36h10.25l10.736 14.197L149.656 36h10.54l-16.634 20.12L163 80h-10.154l-14.893-17.864L123.543 80H113l20.214-23.88"/><path d="M13.584 108.967h.19c2.48-3.91 6.963-6.967 11.828-6.967 5.82 0 10.017 2.96 12.877 7.922C41.245 105.15 46.586 102 52.216 102 63.947 102 67 111.164 67 121.278V148h-8.584v-25.288c0-5.73-.762-13.077-8.297-13.077-9.16 0-9.827 9.544-9.827 16.416V148h-8.586v-23.668c0-5.82-.284-14.697-8.203-14.697-9.158 0-9.92 9.45-9.92 16.416V148H5v-44.665h8.584v5.632z" fill="#F46F7C" mask="url(#f)"/><path d="M36.126 58.406c0-8.59-5.094-15.854-14.08-15.854-8.614 0-13.708 7.645-13.708 15.854 0 8.306 4.91 16.045 13.708 16.045 9.078 0 14.08-7.36 14.08-16.044zM44 80.49h-8.336v-6.887h-.186c-3.335 5-8.523 8.397-14.73 8.397C7.505 82 0 70.77 0 58.126 0 46.046 7.874 35 20.47 35c6.393 0 11.58 3.398 15.008 8.684h.186v-7.362H44v44.17z" fill="#259CC2" mask="url(#f)"/><path d="M196.717 52.297c-2.332 1.37-4.863 6.45-4.913 10.08 2.337-3.192 4.276-6.125 4.913-10.08m23.005-4.213c2.236-1.84 4.482-3.668 6.706-5.522 1.506-1.257 2.964-1.68 4.79-.474 1.732 1.143 2.373 2.637.935 4.12-2.7 2.786-5.61 5.364-8.543 7.892-1.465 1.262-3.233 2.143-4.735 3.367-.524.427-.92 1.364-.932 2.076-.066 3.84-.767 7.734.627 11.49.174.466.387.917.618 1.46 1.87-1.534 3.64-2.92 5.34-4.393 2.007-1.74 3.96-3.553 5.932-5.34.85-.772 1.898-1.418 2.48-2.37 1.1-1.804 2.02-.837 3.082-.097 1.242.864 1.207 2.032.42 3.017-2.905 3.628-5.875 7.2-8.903 10.717-1.036 1.202-2.242 2.285-3.506 3.225-2.98 2.217-6.28 2.465-8.713-.88-.672-.924-1.493-1.74-2.122-2.69-.59-.894-1.02-1.903-1.574-2.96-2.533 2.952-5.055 5.724-7.384 8.662-1.67 2.106-3.634 3.71-5.97 4.876-3.093 1.543-6.973.623-9.37-2.295-.887-1.078-1.527-2.392-2.488-3.38-.51-.522-1.49-.842-2.224-.788-2.566.192-5.436-1.375-6.17-3.81-.14-.46.62-1.322 1.124-1.825.23-.228.85-.015 1.292-.03 2.412-.077 4.357-1.252 3.993-4.154-.39-3.106.045-6.046 1.288-8.944.976-2.277 1.525-4.745 2.367-7.09 1.22-3.396 7.563-6.562 10.57-5.37 2.236.886 3.102 2.9 3.9 4.985 1.49 3.892-.072 7.22-2.12 10.217-2.538 3.716-5.417 7.184-8.184 10.728-1.244 1.595-.726 5.097.958 6.192 1.424.928 2.328-.222 3.053-1.028 2.992-3.318 5.777-6.838 8.793-10.13 2.213-2.414 3.235-5.448 4.5-8.352 2.12-4.853 2.34-10.184 3.258-15.33.853-4.768 1.4-9.6 2.09-14.4.36-2.485.978-2.822 3.27-2.165 4.842 1.39 3.666 1.402 3.367 5.903-.26 3.887-.934 7.748-1.472 11.615-.14 1.01-.45 1.994-.68 2.99l.337.284" fill="#FEDF5E" mask="url(#f)"/></g></svg>